<svg preserveAspectRatio="none" overflow="visible" style="display: block;" width="35" height="35" viewBox="0 0 35 35" fill="none" xmlns="http://www.w3.org/2000/svg">
<g id="Frame WhatsApp">
<rect x="0.5" y="0.5" width="34" height="34" rx="17" stroke="#F3E8D1"/>
<g transform="translate(10.3 10.5) scale(0.6)">
<path d="M12.04 2c-5.46 0-9.91 4.45-9.91 9.91 0 1.75.46 3.45 1.32 4.95L2.05 22l5.25-1.38c1.45.79 3.08 1.21 4.74 1.21h.01c5.46 0 9.91-4.45 9.91-9.91 0-2.65-1.03-5.14-2.9-7.01A9.82 9.82 0 0 0 12.04 2m.01 1.67c2.2 0 4.26.86 5.82 2.42a8.23 8.23 0 0 1 2.41 5.83c0 4.54-3.7 8.23-8.24 8.23-1.48 0-2.93-.4-4.19-1.15l-.3-.17-3.12.82.83-3.04-.2-.32a8.19 8.19 0 0 1-1.26-4.37c.01-4.54 3.71-8.25 8.25-8.25M9.53 7.33c-.16 0-.43.06-.61.27-.2.24-.75.74-.75 1.81 0 1.07.77 2.1.87 2.25.11.15 1.51 2.35 3.7 3.28 1.85.79 2.23.63 2.63.6.4-.04 1.31-.53 1.5-1.05.19-.51.19-.95.13-1.05-.06-.1-.22-.16-.46-.28-.24-.12-1.42-.7-1.64-.78-.22-.08-.38-.12-.54.12-.16.24-.62.78-.76.94-.14.16-.28.18-.52.06-.24-.12-1.02-.38-1.94-1.2-.72-.64-1.2-1.42-1.34-1.66-.14-.24-.02-.38.1-.5.11-.11.24-.28.35-.42.11-.14.15-.24.22-.4.07-.16.03-.3-.05-.42-.08-.12-.6-1.46-.83-2-.19-.45-.38-.46-.55-.47-.14-.01-.3-.01-.46-.01Z" fill="#F3E8D1"/>
</g>
</g>
</svg>
